<svg width="36" height="36" viewBox="0 0 36 36" fill="none" xmlns="http://www.w3.org/2000/svg">
<path fill-rule="evenodd" clip-rule="evenodd" d="M27.1386 12.3637C27.3281 12.5645 27.4015 12.803 27.3025 12.8965L22.8656 17.0837C22.7666 17.1771 22.5327 17.09 22.3432 16.8892C22.1536 16.6884 22.0803 16.4498 22.1793 16.3564L26.6161 12.1692C26.7151 12.0758 26.949 12.1628 27.1386 12.3637Z" fill="#51A8B9"/>
<path fill-rule="evenodd" clip-rule="evenodd" d="M24.0067 25.4652C23.7508 25.5689 23.4968 25.5382 23.4394 25.3966L21.1039 19.6319C21.0465 19.4903 21.2075 19.2915 21.4634 19.1878C21.7194 19.0841 21.9733 19.1148 22.0307 19.2564L24.3663 25.0211C24.4236 25.1627 24.2627 25.3615 24.0067 25.4652Z" fill="#51A8B9"/>
<path d="M23 18C23 19.1046 22.1046 20 21 20C19.8954 20 19 19.1046 19 18C19 16.8954 19.8954 16 21 16C22.1046 16 23 16.8954 23 18Z" fill="#51A8B9"/>
<path d="M35.1973 13C34.1599 14.7934 32.2208 16 30 16C26.6863 16 24 13.3137 24 10C24 6.93569 26.2972 4.40789 29.2635 4.0448C32 6.50001 34 9 35.1973 13Z" fill="#FD9886"/>
<path fill-rule="evenodd" clip-rule="evenodd" d="M26 10C26 12.2092 27.7909 14 30 14C31.1842 14 32.2499 13.4861 32.984 12.6642C32.025 9.97089 30.6126 8.07881 28.6746 6.22435C27.1174 6.7709 26 8.25608 26 10ZM29.2635 4.0448C26.2972 4.40789 24 6.93569 24 10C24 13.3137 26.6863 16 30 16C32.2208 16 34.1599 14.7934 35.1973 13C34 9 32 6.50001 29.2635 4.0448Z" fill="#51A8B9"/>
<path d="M22.997 34.3209C21.252 33.2039 20.1338 31.2125 20.2337 28.9939C20.3827 25.6836 23.1871 23.1208 26.4974 23.2698C29.5587 23.4076 31.9806 25.8162 32.21 28.7957C29.6342 31.4191 27.0468 33.3047 22.997 34.3209Z" fill="#FD9886"/>
<path fill-rule="evenodd" clip-rule="evenodd" d="M26.4075 25.2678C24.2006 25.1685 22.331 26.877 22.2317 29.0839C22.1784 30.2669 22.6439 31.3546 23.432 32.125C26.1657 31.288 28.1194 29.9621 30.0591 28.1095C29.5831 26.5292 28.1497 25.3462 26.4075 25.2678ZM32.21 28.7957C31.9806 25.8162 29.5587 23.4076 26.4974 23.2698C23.1871 23.1208 20.3827 25.6836 20.2337 28.9939C20.1338 31.2125 21.252 33.2039 22.997 34.3209C27.0468 33.3047 29.6342 31.4191 32.21 28.7957Z" fill="#51A8B9"/>
<path d="M15 18C15 20.2091 13.2091 22 11 22C8.79086 22 7 20.2091 7 18C7 15.7909 8.79086 14 11 14C13.2091 14 15 15.7909 15 18Z" fill="#FD9886"/>
<path fill-rule="evenodd" clip-rule="evenodd" d="M11 20C12.1046 20 13 19.1046 13 18C13 16.8954 12.1046 16 11 16C9.89543 16 9 16.8954 9 18C9 19.1046 9.89543 20 11 20ZM11 22C13.2091 22 15 20.2091 15 18C15 15.7909 13.2091 14 11 14C8.79086 14 7 15.7909 7 18C7 20.2091 8.79086 22 11 22Z" fill="#51A8B9"/>
<path fill-rule="evenodd" clip-rule="evenodd" d="M18 33C26.2843 33 33 26.2843 33 18C33 9.71573 26.2843 3 18 3C9.71573 3 3 9.71573 3 18C3 26.2843 9.71573 33 18 33ZM18 36C27.9411 36 36 27.9411 36 18C36 8.05887 27.9411 0 18 0C8.05887 0 0 8.05887 0 18C0 27.9411 8.05887 36 18 36Z" fill="#51A8B9"/>
</svg>
