<svg width="240" height="240" viewBox="0 0 240 240" fill="none" xmlns="http://www.w3.org/2000/svg">
<rect width="240" height="240" rx="20" fill="#FDE2C5"/>
<path d="M107.1 36.6C103.167 36.6 99.5 37.0333 96.1 37.9C92.7667 38.7 89.8667 40.0333 87.4 41.9C84.9333 43.7 82.9667 46.1 81.5 49.1C80.1 52.1 79.4 55.7333 79.4 60C79.4 64.3333 80.1 68 81.5 71C82.9667 73.9333 84.9333 76.3333 87.4 78.2C89.8667 80.0667 92.7667 81.4 96.1 82.2C99.5 83 103.167 83.4 107.1 83.4H118C122.667 83.4 127.2 82.7 131.6 81.3C136.067 79.8333 139.9 77.3 143.1 73.7L149.5 77.7C147.633 80.3 145.5 82.4 143.1 84C140.7 85.5333 138.133 86.7 135.4 87.5C132.667 88.3 129.8 88.8333 126.8 89.1C123.867 89.3667 120.933 89.5 118 89.5H107.1C102.233 89.5 97.7 89 93.5 88C89.3667 86.9333 85.7667 85.2333 82.7 82.9C79.7 80.5 77.3333 77.4333 75.6 73.7C73.9333 69.9667 73.1 65.4 73.1 60C73.1 54.6 73.9333 50.0333 75.6 46.3C77.3333 42.5667 79.7 39.5333 82.7 37.2C85.7667 34.8 89.3667 33.1 93.5 32.1C97.7 31.0333 102.233 30.5 107.1 30.5H118C120.933 30.5 123.867 30.6333 126.8 30.9C129.8 31.1667 132.667 31.7 135.4 32.5C138.133 33.3 140.7 34.5 143.1 36.1C145.5 37.6333 147.633 39.7 149.5 42.3L143.1 46.3C139.9 42.7 136.067 40.2 131.6 38.8C127.2 37.3333 122.667 36.6 118 36.6H107.1ZM118 42.2C122.8 42.2 127.2 43.1 131.2 44.9C135.2 46.6333 138.6 49.5 141.4 53.5L157.3 44.1C155.033 40.2333 152.5 37.0667 149.7 34.6C146.9 32.0667 143.833 30.1 140.5 28.7C137.233 27.2333 133.7 26.2333 129.9 25.7C126.167 25.1667 122.2 24.9 118 24.9H107.1C101.3 24.9 95.9667 25.5667 91.1 26.9C86.3 28.1667 82.1333 30.2 78.6 33C75.1333 35.8 72.4 39.4333 70.4 43.9C68.4667 48.3 67.5 53.6667 67.5 60C67.5 66.3333 68.4667 71.7333 70.4 76.2C72.4 80.6 75.1333 84.2 78.6 87C82.1333 89.8 86.3 91.8667 91.1 93.2C95.9667 94.4667 101.3 95.1 107.1 95.1H118C122.2 95.1 126.167 94.8333 129.9 94.3C133.7 93.7667 137.233 92.8 140.5 91.4C143.833 89.9333 146.9 87.9667 149.7 85.5C152.5 83.0333 155.033 79.8333 157.3 75.9L141.4 66.5C138.6 70.5 135.2 73.4 131.2 75.2C127.2 76.9333 122.8 77.8 118 77.8H107.1C104.1 77.8 101.267 77.5 98.6 76.9C95.9333 76.3 93.6 75.3333 91.6 74C89.6 72.6 88 70.7667 86.8 68.5C85.6 66.2333 85 63.4 85 60C85 56.6667 85.6 53.8667 86.8 51.6C88 49.3333 89.6 47.5 91.6 46.1C93.6667 44.7 96.0333 43.7 98.7 43.1C101.367 42.5 104.167 42.2 107.1 42.2H118ZM82.5 96.4C78.7 93.0667 75.6667 89.9667 73.4 87.1C71.1333 84.1667 69.3667 81.3 68.1 78.5C66.8333 75.6333 66 72.7 65.6 69.7C65.2 66.7 65 63.4667 65 60C65 53.2 66.0333 47.4333 68.1 42.7C70.1667 37.9 73.0667 34 76.8 31C80.5333 28 84.9667 25.8333 90.1 24.5C95.3 23.1 100.967 22.4 107.1 22.4H118C121.8 22.4 125.433 22.5667 128.9 22.9C132.433 23.1667 135.933 23.9667 139.4 25.3C142.867 26.6333 146.4 28.6333 150 31.3C153.6 33.9667 157.467 37.6667 161.6 42.4C162.267 43.1333 163 44 163.8 45C164.6 46 165.367 47.0667 166.1 48.2C166.833 49.3333 167.567 50.5 168.3 51.7C169.033 52.8333 169.7 53.9 170.3 54.9L150.8 66.4L143.2 58.8C140.867 57.2667 138.433 56.1667 135.9 55.5C133.367 54.7667 130.733 54.4 128 54.4H117.1C114.433 54.4 111.9 54.6667 109.5 55.2C107.1 55.7333 104.967 56.6 103.1 57.8C101.3 59 99.8667 60.6 98.8 62.6C97.7333 64.6 97.2 67.0667 97.2 70C97.2 71.6 97.3333 72.9333 97.6 74C99 74.4667 100.5 74.8 102.1 75C103.7 75.2 105.367 75.3 107.1 75.3H118C122.4 75.3 126.533 74.3667 130.4 72.5C134.333 70.6333 137.8 67.5333 140.8 63.2L160.8 75L170.3 85.1C167.633 89.6333 164.733 93.3333 161.6 96.2C158.533 99.0667 155.233 101.3 151.7 102.9C148.167 104.567 144.433 105.7 140.5 106.3C136.567 106.967 132.4 107.3 128 107.3H117.1C113.7 107.3 110.333 107.067 107 106.6C103.733 106.2 100.567 105.533 97.5 104.6C94.5 103.733 91.7 102.6 89.1 101.2C86.5667 99.8667 84.3667 98.2667 82.5 96.4Z" fill="#FD9886"/>
<path d="M73.2 130.5H78.4L112.9 181.7C118.567 173.033 124.267 164.467 130 156C135.8 147.533 141.633 139.033 147.5 130.5H152.7V189.5H146.5V143.1L115.4 189.5H110.5L79.4 143.2V189.5H73.2V130.5ZM84.9 161.4L107.4 195.1H118.4L141 161.3V195.1H158.2V124.9H144.4L112.8 171.7L81.4 124.9H67.7V195.1H84.9V161.4ZM92.5 132.7L114.2 165.2L143.2 122.4H160.7L170.4 132.7V207.3H148.8L138.5 197.6V193.9L129.5 207.3H116.3L106.2 197.6L97.1 184V207.3H75.5L65.2 197.6V122.4H82.6L92.5 132.7Z" fill="#51A8B9"/>
</svg>
