<svg width="535" height="52" viewBox="0 0 535 52" fill="none" xmlns="http://www.w3.org/2000/svg">
<path d="M25.86 8.96C23.5 8.96 21.3 9.22 19.26 9.74C17.26 10.22 15.52 11.02 14.04 12.14C12.56 13.22 11.38 14.66 10.5 16.46C9.66 18.26 9.24 20.44 9.24 23C9.24 25.6 9.66 27.8 10.5 29.6C11.38 31.36 12.56 32.8 14.04 33.92C15.52 35.04 17.26 35.84 19.26 36.32C21.3 36.8 23.5 37.04 25.86 37.04H32.4C35.2 37.04 37.92 36.62 40.56 35.78C43.24 34.9 45.54 33.38 47.46 31.22L51.3 33.62C50.18 35.18 48.9 36.44 47.46 37.4C46.02 38.32 44.48 39.02 42.84 39.5C41.2 39.98 39.48 40.3 37.68 40.46C35.92 40.62 34.16 40.7 32.4 40.7H25.86C22.94 40.7 20.22 40.4 17.7 39.8C15.22 39.16 13.06 38.14 11.22 36.74C9.42 35.3 8 33.46 6.96 31.22C5.96 28.98 5.46 26.24 5.46 23C5.46 19.76 5.96 17.02 6.96 14.78C8 12.54 9.42 10.72 11.22 9.32C13.06 7.88 15.22 6.86 17.7 6.26C20.22 5.62 22.94 5.3 25.86 5.3H32.4C34.16 5.3 35.92 5.38 37.68 5.54C39.48 5.7 41.2 6.02 42.84 6.5C44.48 6.98 46.02 7.7 47.46 8.66C48.9 9.58 50.18 10.82 51.3 12.38L47.46 14.78C45.54 12.62 43.24 11.12 40.56 10.28C37.92 9.4 35.2 8.96 32.4 8.96H25.86ZM32.4 12.32C35.28 12.32 37.92 12.86 40.32 13.94C42.72 14.98 44.76 16.7 46.44 19.1L55.98 13.46C54.62 11.14 53.1 9.24 51.42 7.76C49.74 6.24 47.9 5.06 45.9 4.22C43.94 3.34 41.82 2.74 39.54 2.42C37.3 2.1 34.92 1.94 32.4 1.94H25.86C22.38 1.94 19.18 2.34 16.26 3.14C13.38 3.9 10.88 5.12 8.76 6.8C6.68 8.48 5.04 10.66 3.84 13.34C2.68 15.98 2.1 19.2 2.1 23C2.1 26.8 2.68 30.04 3.84 32.72C5.04 35.36 6.68 37.52 8.76 39.2C10.88 40.88 13.38 42.12 16.26 42.92C19.18 43.68 22.38 44.06 25.86 44.06H32.4C34.92 44.06 37.3 43.9 39.54 43.58C41.82 43.26 43.94 42.68 45.9 41.84C47.9 40.96 49.74 39.78 51.42 38.3C53.1 36.82 54.62 34.9 55.98 32.54L46.44 26.9C44.76 29.3 42.72 31.04 40.32 32.12C37.92 33.16 35.28 33.68 32.4 33.68H25.86C24.06 33.68 22.36 33.5 20.76 33.14C19.16 32.78 17.76 32.2 16.56 31.4C15.36 30.56 14.4 29.46 13.68 28.1C12.96 26.74 12.6 25.04 12.6 23C12.6 21 12.96 19.32 13.68 17.96C14.4 16.6 15.36 15.5 16.56 14.66C17.8 13.82 19.22 13.22 20.82 12.86C22.42 12.5 24.1 12.32 25.86 12.32H32.4ZM11.1 44.84C8.82 42.84 7 40.98 5.64 39.26C4.28 37.5 3.22 35.78 2.46 34.1C1.7 32.38 1.2 30.62 0.96 28.82C0.72 27.02 0.6 25.08 0.6 23C0.6 18.92 1.22 15.46 2.46 12.62C3.7 9.74 5.44 7.4 7.68 5.6C9.92 3.8 12.58 2.5 15.66 1.7C18.78 0.859999 22.18 0.439999 25.86 0.439999H32.4C34.68 0.439999 36.86 0.539999 38.94 0.739999C41.06 0.899999 43.16 1.38 45.24 2.18C47.32 2.98 49.44 4.18 51.6 5.78C53.76 7.38 56.08 9.6 58.56 12.44C58.96 12.88 59.4 13.4 59.88 14C60.36 14.6 60.82 15.24 61.26 15.92C61.7 16.6 62.14 17.3 62.58 18.02C63.02 18.7 63.42 19.34 63.78 19.94L52.08 26.84L47.52 22.28C46.12 21.36 44.66 20.7 43.14 20.3C41.62 19.86 40.04 19.64 38.4 19.64H31.86C30.26 19.64 28.74 19.8 27.3 20.12C25.86 20.44 24.58 20.96 23.46 21.68C22.38 22.4 21.52 23.36 20.88 24.56C20.24 25.76 19.92 27.24 19.92 29C19.92 29.96 20 30.76 20.16 31.4C21 31.68 21.9 31.88 22.86 32C23.82 32.12 24.82 32.18 25.86 32.18H32.4C35.04 32.18 37.52 31.62 39.84 30.5C42.2 29.38 44.28 27.52 46.08 24.92L58.08 32L63.78 38.06C62.18 40.78 60.44 43 58.56 44.72C56.72 46.44 54.74 47.78 52.62 48.74C50.5 49.74 48.26 50.42 45.9 50.78C43.54 51.18 41.04 51.38 38.4 51.38H31.86C29.82 51.38 27.8 51.24 25.8 50.96C23.84 50.72 21.94 50.32 20.1 49.76C18.3 49.24 16.62 48.56 15.06 47.72C13.54 46.92 12.22 45.96 11.1 44.84ZM101.023 37.04C103.343 37.04 105.503 36.8 107.503 36.32C109.543 35.8 111.303 35 112.783 33.92C114.303 32.8 115.483 31.36 116.323 29.6C117.163 27.8 117.583 25.6 117.583 23C117.583 20.44 117.143 18.26 116.263 16.46C115.423 14.66 114.263 13.22 112.783 12.14C111.303 11.02 109.543 10.22 107.503 9.74C105.503 9.22 103.343 8.96 101.023 8.96H94.4231C92.0631 8.96 89.8631 9.22 87.8231 9.74C85.8231 10.22 84.0831 11.02 82.6031 12.14C81.1231 13.22 79.9431 14.66 79.0631 16.46C78.2231 18.26 77.8031 20.44 77.8031 23C77.8031 25.6 78.2231 27.8 79.0631 29.6C79.9431 31.36 81.1231 32.8 82.6031 33.92C84.0831 35.04 85.8231 35.84 87.8231 36.32C89.8631 36.8 92.0631 37.04 94.4231 37.04H101.023ZM94.4231 33.68C92.6231 33.68 90.9231 33.5 89.3231 33.14C87.7231 32.78 86.3231 32.2 85.1231 31.4C83.9231 30.56 82.9631 29.46 82.2431 28.1C81.5231 26.74 81.1631 25.04 81.1631 23C81.1631 21 81.5231 19.32 82.2431 17.96C82.9631 16.6 83.9231 15.5 85.1231 14.66C86.3631 13.82 87.7831 13.22 89.3831 12.86C90.9831 12.5 92.6631 12.32 94.4231 12.32H101.023C102.783 12.32 104.463 12.5 106.063 12.86C107.663 13.22 109.063 13.82 110.263 14.66C111.463 15.5 112.423 16.6 113.143 17.96C113.863 19.32 114.223 21 114.223 23C114.223 25 113.863 26.68 113.143 28.04C112.463 29.4 111.523 30.5 110.323 31.34C109.123 32.18 107.723 32.78 106.123 33.14C104.523 33.5 102.823 33.68 101.023 33.68H94.4231ZM74.0231 23C74.0231 19.76 74.5231 17.02 75.5231 14.78C76.5631 12.54 77.9831 10.72 79.7831 9.32C81.6231 7.88 83.7831 6.86 86.2631 6.26C88.7831 5.62 91.5031 5.3 94.4231 5.3H101.023C103.943 5.3 106.643 5.62 109.123 6.26C111.603 6.9 113.743 7.92 115.543 9.32C117.383 10.72 118.803 12.54 119.803 14.78C120.843 17.02 121.363 19.76 121.363 23C121.363 26.24 120.843 28.98 119.803 31.22C118.803 33.46 117.383 35.28 115.543 36.68C113.743 38.08 111.603 39.1 109.123 39.74C106.643 40.38 103.943 40.7 101.023 40.7H94.4231C91.5031 40.7 88.7831 40.4 86.2631 39.8C83.7831 39.16 81.6231 38.14 79.7831 36.74C77.9831 35.3 76.5631 33.46 75.5231 31.22C74.5231 28.98 74.0231 26.24 74.0231 23ZM70.6631 23C70.6631 26.8 71.2431 30.04 72.4031 32.72C73.6031 35.36 75.2431 37.52 77.3231 39.2C79.4431 40.88 81.9431 42.12 84.8231 42.92C87.7431 43.68 90.9431 44.06 94.4231 44.06H101.023C104.503 44.06 107.683 43.68 110.563 42.92C113.443 42.12 115.923 40.88 118.003 39.2C120.123 37.52 121.763 35.36 122.923 32.72C124.083 30.04 124.663 26.8 124.663 23C124.663 19.2 124.083 15.98 122.923 13.34C121.763 10.66 120.123 8.48 118.003 6.8C115.923 5.12 113.443 3.9 110.563 3.14C107.683 2.34 104.503 1.94 101.023 1.94H94.4231C90.9431 1.94 87.7431 2.34 84.8231 3.14C81.9431 3.9 79.4431 5.12 77.3231 6.8C75.2431 8.48 73.6031 10.66 72.4031 13.34C71.2431 15.98 70.6631 19.2 70.6631 23ZM69.1631 23C69.1631 18.92 69.7831 15.46 71.0231 12.62C72.2631 9.74 74.0031 7.4 76.2431 5.6C78.4831 3.8 81.1431 2.5 84.2231 1.7C87.3431 0.859999 90.7431 0.439999 94.4231 0.439999H101.023C103.343 0.439999 105.523 0.579999 107.563 0.859998C109.643 1.1 111.683 1.64 113.683 2.48C115.683 3.28 117.663 4.44 119.623 5.96C121.623 7.44 123.683 9.44 125.803 11.96C127.603 13.76 129.083 16.14 130.243 19.1C131.403 22.06 131.983 25.36 131.983 29C131.983 33.04 131.363 36.48 130.123 39.32C128.923 42.16 127.203 44.46 124.963 46.22C122.763 48.02 120.123 49.32 117.043 50.12C114.003 50.96 110.663 51.38 107.023 51.38H100.423C96.3431 51.38 92.5431 50.92 89.0231 50C85.5031 49.08 82.6031 47.5 80.3231 45.26C78.0431 43.26 76.1831 41.38 74.7431 39.62C73.3031 37.82 72.1631 36.04 71.3231 34.28C70.5231 32.52 69.9631 30.72 69.6431 28.88C69.3231 27.04 69.1631 25.08 69.1631 23ZM101.023 32.18C102.583 32.18 104.063 32.04 105.463 31.76C106.903 31.44 108.163 30.92 109.243 30.2C110.323 29.48 111.163 28.54 111.763 27.38C112.403 26.18 112.723 24.72 112.723 23C112.723 22.04 112.603 21.16 112.363 20.36C110.723 19.88 108.943 19.64 107.023 19.64H100.423C98.8231 19.64 97.3031 19.8 95.8631 20.12C94.4231 20.44 93.1431 20.96 92.0231 21.68C90.9431 22.4 90.0831 23.36 89.4431 24.56C88.8031 25.76 88.4831 27.24 88.4831 29C88.4831 29.96 88.5631 30.76 88.7231 31.4C89.5631 31.68 90.4631 31.88 91.4231 32C92.3831 32.12 93.3831 32.18 94.4231 32.18H101.023ZM168.641 37.04C170.961 37.04 173.141 36.8 175.181 36.32C177.221 35.84 178.981 35.04 180.461 33.92C181.981 32.8 183.161 31.36 184.001 29.6C184.881 27.8 185.321 25.6 185.321 23C185.321 20.4 184.881 18.22 184.001 16.46C183.161 14.66 181.981 13.2 180.461 12.08C178.981 10.96 177.221 10.16 175.181 9.68C173.141 9.2 170.961 8.96 168.641 8.96H147.281V37.04H168.641ZM168.641 12.32C170.441 12.32 172.141 12.5 173.741 12.86C175.381 13.18 176.801 13.76 178.001 14.6C179.241 15.44 180.221 16.54 180.941 17.9C181.701 19.26 182.081 20.96 182.081 23C182.081 25.04 181.721 26.76 181.001 28.16C180.281 29.52 179.301 30.62 178.061 31.46C176.821 32.26 175.381 32.84 173.741 33.2C172.141 33.52 170.441 33.68 168.641 33.68H150.521V12.32H168.641ZM168.641 5.3C171.561 5.3 174.261 5.62 176.741 6.26C179.221 6.86 181.381 7.88 183.221 9.32C185.061 10.72 186.501 12.54 187.541 14.78C188.581 17.02 189.101 19.76 189.101 23C189.101 26.24 188.581 28.98 187.541 31.22C186.501 33.46 185.061 35.3 183.221 36.74C181.381 38.14 179.221 39.16 176.741 39.8C174.261 40.4 171.561 40.7 168.641 40.7H143.621V5.3H168.641ZM168.641 44.06C172.121 44.06 175.301 43.68 178.181 42.92C181.101 42.16 183.601 40.94 185.681 39.26C187.801 37.58 189.441 35.4 190.601 32.72C191.801 30.04 192.401 26.8 192.401 23C192.401 19.2 191.801 15.96 190.601 13.28C189.441 10.6 187.801 8.42 185.681 6.74C183.601 5.06 181.101 3.84 178.181 3.08C175.301 2.32 172.121 1.94 168.641 1.94H140.321V44.06H168.641ZM138.821 0.439999H168.641C170.921 0.439999 173.121 0.559999 175.241 0.799998C177.361 0.999998 179.441 1.48 181.481 2.24C183.561 3 185.621 4.12 187.661 5.6C189.741 7.08 191.861 9.08 194.021 11.6C195.821 13.4 197.221 15.86 198.221 18.98C199.221 22.06 199.721 25.4 199.721 29C199.721 33.04 199.101 36.48 197.861 39.32C196.621 42.16 194.881 44.46 192.641 46.22C190.441 48.02 187.801 49.32 184.721 50.12C181.641 50.96 178.281 51.38 174.641 51.38H145.001L138.821 45.56V0.439999ZM157.841 32.18H168.641C170.241 32.18 171.761 32.04 173.201 31.76C174.641 31.44 175.901 30.94 176.981 30.26C178.101 29.54 178.981 28.6 179.621 27.44C180.261 26.24 180.581 24.76 180.581 23C180.581 22.12 180.481 21.24 180.281 20.36C178.521 19.88 176.641 19.64 174.641 19.64H157.841V32.18ZM247.129 21.2V24.8H216.589V37.04H253.369V40.7H212.869V5.3H253.309V8.96H216.589V21.2H247.129ZM256.669 12.32V1.94H209.509V44.06H256.729V33.68H219.889V28.1H250.429V17.9H219.889V12.32H256.669ZM208.009 45.56V0.439999H258.169L263.989 6.62V19.64H254.809L257.749 22.58V32.18L264.049 38.36V51.38H214.189L208.009 45.56Z" fill="#FD9886"/>
<path d="M313.665 5.3H316.785L337.485 36.02C340.885 30.82 344.305 25.68 347.745 20.6C351.225 15.52 354.725 10.42 358.245 5.3H361.365V40.7H357.645V12.86L338.985 40.7H336.045L317.385 12.92V40.7H313.665V5.3ZM320.685 23.84L334.185 44.06H340.785L354.345 23.78V44.06H364.665V1.94H356.385L337.425 30.02L318.585 1.94H310.365V44.06H320.685V23.84ZM325.245 6.62L338.265 26.12L355.665 0.439999H366.165L371.985 6.62V51.38H359.025L352.845 45.56V43.34L347.445 51.38H339.525L333.465 45.56L328.005 37.4V51.38H315.045L308.865 45.56V0.439999H319.305L325.245 6.62ZM385.71 5.3H389.31V40.7H385.71V5.3ZM392.61 1.94H382.41V44.06H392.61V1.94ZM380.91 45.56V0.439999H394.11L399.93 6.62V51.38H387.09L380.91 45.56ZM417.852 11V40.7H414.312V5.3H417.372L449.592 35V5.3H453.192V40.7H450.192L417.852 11ZM456.552 1.94H446.292V27.44L418.512 1.94H410.952V44.06H421.212V18.5L449.052 44.06H456.552V1.94ZM409.452 45.56V0.439999H419.052L444.792 24.02V0.439999H458.052L463.872 6.62V51.38H454.512L428.532 27.56V51.38H415.632L409.452 45.56ZM503.212 37.04C505.532 37.04 507.712 36.8 509.752 36.32C511.792 35.84 513.552 35.04 515.032 33.92C516.552 32.8 517.732 31.36 518.572 29.6C519.452 27.8 519.892 25.6 519.892 23C519.892 20.4 519.452 18.22 518.572 16.46C517.732 14.66 516.552 13.2 515.032 12.08C513.552 10.96 511.792 10.16 509.752 9.68C507.712 9.2 505.532 8.96 503.212 8.96H481.852V37.04H503.212ZM503.212 12.32C505.012 12.32 506.712 12.5 508.312 12.86C509.952 13.18 511.372 13.76 512.572 14.6C513.812 15.44 514.792 16.54 515.512 17.9C516.272 19.26 516.652 20.96 516.652 23C516.652 25.04 516.292 26.76 515.572 28.16C514.852 29.52 513.872 30.62 512.632 31.46C511.392 32.26 509.952 32.84 508.312 33.2C506.712 33.52 505.012 33.68 503.212 33.68H485.092V12.32H503.212ZM503.212 5.3C506.132 5.3 508.832 5.62 511.312 6.26C513.792 6.86 515.952 7.88 517.792 9.32C519.632 10.72 521.072 12.54 522.112 14.78C523.152 17.02 523.672 19.76 523.672 23C523.672 26.24 523.152 28.98 522.112 31.22C521.072 33.46 519.632 35.3 517.792 36.74C515.952 38.14 513.792 39.16 511.312 39.8C508.832 40.4 506.132 40.7 503.212 40.7H478.192V5.3H503.212ZM503.212 44.06C506.692 44.06 509.872 43.68 512.752 42.92C515.672 42.16 518.172 40.94 520.252 39.26C522.372 37.58 524.012 35.4 525.172 32.72C526.372 30.04 526.972 26.8 526.972 23C526.972 19.2 526.372 15.96 525.172 13.28C524.012 10.6 522.372 8.42 520.252 6.74C518.172 5.06 515.672 3.84 512.752 3.08C509.872 2.32 506.692 1.94 503.212 1.94H474.892V44.06H503.212ZM473.392 0.439999H503.212C505.492 0.439999 507.692 0.559999 509.812 0.799998C511.932 0.999998 514.012 1.48 516.052 2.24C518.132 3 520.192 4.12 522.232 5.6C524.312 7.08 526.432 9.08 528.592 11.6C530.392 13.4 531.792 15.86 532.792 18.98C533.792 22.06 534.292 25.4 534.292 29C534.292 33.04 533.672 36.48 532.432 39.32C531.192 42.16 529.452 44.46 527.212 46.22C525.012 48.02 522.372 49.32 519.292 50.12C516.212 50.96 512.852 51.38 509.212 51.38H479.572L473.392 45.56V0.439999ZM492.412 32.18H503.212C504.812 32.18 506.332 32.04 507.772 31.76C509.212 31.44 510.472 30.94 511.552 30.26C512.672 29.54 513.552 28.6 514.192 27.44C514.832 26.24 515.152 24.76 515.152 23C515.152 22.12 515.052 21.24 514.852 20.36C513.092 19.88 511.212 19.64 509.212 19.64H492.412V32.18Z" fill="#51A8B9"/>
</svg>
