<svg width="82" height="16" viewBox="0 0 82 16" fill="none" xmlns="http://www.w3.org/2000/svg">
<path d="M8.74981 12.084C9.06182 11.856 9.34382 11.58 9.59582 11.256C9.84782 10.92 10.0578 10.752 10.2258 10.752C10.4058 10.752 10.4958 11.016 10.4958 11.544C10.4958 12.06 10.3458 12.552 10.0458 13.02C9.75782 13.476 9.37382 13.86 8.89382 14.172C7.90982 14.82 6.74582 15.144 5.40181 15.144C3.76981 15.144 2.50381 14.736 1.60381 13.92C0.703815 13.104 0.253815 11.97 0.253815 10.518C0.253815 8.72997 0.685815 7.03197 1.54981 5.42397C1.83781 4.89597 2.16181 4.40997 2.52181 3.96597C2.24581 3.64197 2.02381 3.30597 1.85581 2.95797C1.69981 2.59797 1.62181 2.32797 1.62181 2.14797C1.62181 1.82397 1.74181 1.66197 1.98181 1.66197C2.14981 1.67397 2.34181 1.78797 2.55781 2.00397L3.11581 2.54397C3.25981 2.68797 3.40981 2.80797 3.56581 2.90397C4.75382 1.89597 6.03182 1.39197 7.39982 1.39197C8.77982 1.39197 9.67382 1.77597 10.0818 2.54397C10.2258 2.83197 10.2978 3.18597 10.2978 3.60597C10.2978 4.24197 10.0218 4.77597 9.46982 5.20797C8.91782 5.63997 8.17382 5.85597 7.23781 5.85597C6.31381 5.85597 5.35381 5.66397 4.35781 5.27997C3.50581 6.73197 3.07981 8.24997 3.07981 9.83397C3.07981 12.03 3.95581 13.128 5.70781 13.128C6.78781 13.128 7.80182 12.78 8.74981 12.084ZM5.22182 4.16397C5.83382 4.36797 6.49982 4.46997 7.21982 4.46997C7.93982 4.46997 8.29982 4.27197 8.29982 3.87597C8.29982 3.40797 8.00582 3.17397 7.41782 3.17397C6.61382 3.17397 5.88182 3.50397 5.22182 4.16397Z" fill="#FD9886"/>
<path d="M16.8647 13.47C15.9167 14.586 14.7767 15.144 13.4447 15.144C12.1247 15.144 11.1347 14.808 10.4747 14.136C9.81472 13.452 9.49072 12.606 9.50272 11.598C9.49072 10.17 9.94072 8.93997 10.8527 7.90797C11.7647 6.87597 12.9587 6.35997 14.4347 6.35997C15.1067 6.35997 15.6467 6.44397 16.0547 6.61197C16.7627 6.89997 17.1167 7.16997 17.1167 7.42197C17.1167 7.61397 16.6187 7.71597 15.6227 7.72797C14.6387 7.72797 13.8107 8.06997 13.1387 8.75397C12.4787 9.42597 12.1487 10.278 12.1487 11.31C12.1487 11.85 12.3047 12.306 12.6167 12.678C12.9407 13.038 13.3907 13.218 13.9667 13.218C14.5547 13.218 15.0407 13.098 15.4247 12.858C14.5727 12.282 14.1467 11.448 14.1467 10.356C14.1347 9.77997 14.3387 9.25797 14.7587 8.78997C15.1907 8.30997 15.7367 8.06997 16.3967 8.06997C17.0687 8.05797 17.5487 8.23797 17.8367 8.60997C18.1247 8.98197 18.2687 9.46197 18.2687 10.05C18.2687 10.626 18.1307 11.238 17.8547 11.886H17.9627C18.4907 11.874 18.9467 11.688 19.3307 11.328C19.4747 11.184 19.5947 11.058 19.6907 10.95C19.7987 10.842 19.9067 10.788 20.0147 10.788C20.1827 10.788 20.2667 10.986 20.2667 11.382C20.2667 12.114 20.0507 12.666 19.6187 13.038C19.1867 13.398 18.7067 13.578 18.1787 13.578C17.6627 13.578 17.2247 13.542 16.8647 13.47ZM16.7027 11.382C16.9067 10.95 17.0087 10.53 17.0087 10.122C17.0087 9.71397 16.8767 9.50997 16.6127 9.50997C16.5047 9.50997 16.4147 9.58797 16.3427 9.74397C16.2707 9.89997 16.2347 10.05 16.2347 10.194C16.2347 10.674 16.3907 11.07 16.7027 11.382Z" fill="#FD9886"/>
<path d="M30.4182 10.752C30.6342 10.752 30.7422 11.028 30.7422 11.58C30.7422 11.88 30.6162 12.246 30.3642 12.678C30.1122 13.098 29.7822 13.488 29.3742 13.848C28.9782 14.196 28.5342 14.484 28.0422 14.712C27.5502 14.94 27.0702 15.054 26.6022 15.054C25.9422 15.054 25.5102 14.514 25.3062 13.434C24.5862 14.574 23.5182 15.144 22.1022 15.144C21.2382 15.144 20.5482 14.88 20.0322 14.352C19.5162 13.824 19.2642 13.182 19.2762 12.426C19.2762 10.386 19.9542 8.77797 21.3102 7.60197C22.2462 6.79797 23.2182 6.39597 24.2262 6.39597C24.6822 6.39597 25.0422 6.43197 25.3062 6.50397L25.7202 6.61197C26.2122 4.29597 26.7822 2.74797 27.4302 1.96797C27.6462 1.70397 27.8622 1.57197 28.0782 1.57197C28.4262 1.57197 28.7502 1.81197 29.0502 2.29197C29.3142 2.68797 29.4462 3.02997 29.4462 3.31797C29.4462 3.60597 29.4042 3.88797 29.3202 4.16397C29.2362 4.43997 29.1282 4.69797 28.9962 4.93797C28.8762 5.16597 28.7382 5.39397 28.5822 5.62197C28.4262 5.83797 28.2702 6.05997 28.1142 6.28797C27.7662 7.58397 27.5082 9.03597 27.3402 10.644C27.2922 11.1 27.2682 11.466 27.2682 11.742C27.2682 12.57 27.4062 12.984 27.6822 12.984C27.9942 12.984 28.7502 12.36 29.9502 11.112C30.1662 10.872 30.3222 10.752 30.4182 10.752ZM21.9222 11.832C21.9222 12.756 22.2642 13.218 22.9482 13.218C23.3562 13.218 23.7642 13.062 24.1722 12.75C24.5922 12.438 24.9162 11.916 25.1442 11.184C25.1682 10.104 25.2942 8.91597 25.5222 7.61997C24.5622 7.81197 23.7222 8.27997 23.0022 9.02397C22.2822 9.76797 21.9222 10.704 21.9222 11.832Z" fill="#FD9886"/>
<path d="M34.0367 13.038C34.9727 13.038 35.8787 12.666 36.7547 11.922C37.0787 11.646 37.3427 11.394 37.5467 11.166C37.7507 10.926 37.9067 10.806 38.0147 10.806C38.1827 10.806 38.2667 10.974 38.2667 11.31C38.2667 11.646 38.1767 12.024 37.9967 12.444C37.8167 12.852 37.5167 13.254 37.0967 13.65C36.0647 14.622 34.6487 15.108 32.8487 15.108C31.4207 15.108 30.4487 14.592 29.9327 13.56C29.7527 13.2 29.6627 12.684 29.6627 12.012C29.6627 11.34 29.7947 10.644 30.0587 9.92397C30.3227 9.19197 30.6707 8.56197 31.1027 8.03397C31.5467 7.50597 32.0567 7.09797 32.6327 6.80997C33.2087 6.50997 33.8207 6.35997 34.4687 6.35997C35.1287 6.35997 35.6327 6.52197 35.9807 6.84597C36.3407 7.16997 36.5207 7.58997 36.5207 8.10597C36.5207 8.62197 36.3887 9.04797 36.1247 9.38397C35.8727 9.70797 35.5427 9.98397 35.1347 10.212C34.7267 10.428 34.2707 10.626 33.7667 10.806C33.2747 10.974 32.7887 11.166 32.3087 11.382V11.832C32.3207 12.264 32.5007 12.57 32.8487 12.75C33.1967 12.93 33.5927 13.026 34.0367 13.038ZM33.7307 7.96197C33.1067 7.96197 32.6747 8.68797 32.4347 10.14C32.6867 9.97197 32.9207 9.82197 33.1367 9.68997C33.3647 9.55797 33.5627 9.43197 33.7307 9.31197C34.0907 9.04797 34.2767 8.74797 34.2887 8.41197C34.2887 8.11197 34.1027 7.96197 33.7307 7.96197Z" fill="#FD9886"/>
<path d="M55.5 10.752C55.704 10.752 55.806 11.028 55.806 11.58C55.806 11.88 55.68 12.246 55.428 12.678C55.176 13.098 54.846 13.488 54.438 13.848C54.042 14.196 53.598 14.484 53.106 14.712C52.614 14.94 52.092 15.054 51.54 15.054C51 15.054 50.574 14.88 50.262 14.532C49.962 14.172 49.812 13.776 49.812 13.344C49.812 12.9 49.884 12.402 50.028 11.85C50.172 11.298 50.328 10.722 50.496 10.122C50.952 8.52598 51.186 7.40398 51.198 6.75598C51.198 6.47998 51.162 6.26998 51.09 6.12598C51.018 5.96997 50.88 5.89197 50.676 5.89197C50.316 5.89197 49.932 6.10798 49.524 6.53998C49.116 6.97198 48.732 7.52398 48.372 8.19598C47.544 9.73198 47.106 11.232 47.058 12.696C47.082 12.864 47.106 13.032 47.13 13.2C47.154 13.368 47.166 13.548 47.166 13.74C47.166 14.124 46.974 14.478 46.59 14.802C46.218 15.114 45.798 15.27 45.33 15.27C45.054 15.27 44.85 15.138 44.718 14.874C44.586 14.598 44.52 14.262 44.52 13.866C44.52 13.47 44.61 12.93 44.79 12.246C44.97 11.562 45.168 10.836 45.384 10.068C45.96 8.03998 46.254 6.52798 46.266 5.53198C46.266 5.02798 46.2 4.63198 46.068 4.34398C45.948 4.05597 45.708 3.91197 45.348 3.91197C44.7 3.91197 44.058 4.37397 43.422 5.29798C42.786 6.22198 42.216 7.65598 41.712 9.59998C41.58 10.104 41.478 10.542 41.406 10.914L41.388 11.256C41.616 12.36 41.73 13.08 41.73 13.416C41.73 14.112 41.484 14.58 40.992 14.82C40.764 14.928 40.542 15.03 40.326 15.126C40.122 15.222 39.9 15.27 39.66 15.27C39.06 15.27 38.76 14.7 38.76 13.56C38.76 12.408 39.078 10.164 39.714 6.82798C39.942 5.62798 40.056 4.95598 40.056 4.81198C40.056 3.83998 39.81 3.35398 39.318 3.35398C39.15 3.35398 38.994 3.40198 38.85 3.49797C38.718 3.59398 38.58 3.69598 38.436 3.80398C38.304 3.91198 38.166 4.01398 38.022 4.10998C37.878 4.20598 37.71 4.25398 37.518 4.25398C37.338 4.25398 37.248 4.09198 37.248 3.76798C37.248 3.10798 37.554 2.56798 38.166 2.14797C38.754 1.71597 39.468 1.49997 40.308 1.49997C41.388 1.49997 42.024 2.00398 42.216 3.01198C42.264 3.31198 42.3 3.62998 42.324 3.96598C43.212 2.29798 44.334 1.46398 45.69 1.46398C47.166 1.46398 48.012 2.17198 48.228 3.58798C48.3 3.99598 48.33 4.43397 48.318 4.90197V5.04598C49.098 3.96598 50.022 3.42598 51.09 3.42598C52.602 3.42598 53.358 4.33798 53.358 6.16198C53.358 6.95398 53.232 7.88398 52.98 8.95197C52.74 10.008 52.56 10.77 52.44 11.238C52.332 11.694 52.278 12.048 52.278 12.3C52.278 12.756 52.434 12.984 52.746 12.984C53.07 12.984 53.832 12.36 55.032 11.112C55.248 10.872 55.404 10.752 55.5 10.752Z" fill="#51A8B9"/>
<path d="M57.0691 15.054C55.8691 15.054 55.2691 13.932 55.2691 11.688C55.2691 10.464 55.4191 9.35398 55.7191 8.35798C56.1871 6.82198 56.7151 6.05398 57.3031 6.05398C57.6511 6.05398 57.9271 6.28798 58.1311 6.75598C58.2991 7.11598 58.3771 7.46998 58.3651 7.81798C58.3651 8.29798 58.2211 9.14398 57.9331 10.356C57.6571 11.412 57.5191 12.066 57.5191 12.318C57.5191 12.57 57.5791 12.744 57.6991 12.84C57.8311 12.936 57.9811 12.984 58.1491 12.984C58.3291 12.984 58.5511 12.87 58.8151 12.642C59.0791 12.414 59.3431 12.168 59.6071 11.904C59.8711 11.628 60.1111 11.376 60.3271 11.148C60.5551 10.92 60.7111 10.806 60.7951 10.806C60.9631 10.806 61.0471 11.01 61.0471 11.418C61.0471 12.258 60.6211 13.08 59.7691 13.884C58.9291 14.676 58.0291 15.066 57.0691 15.054ZM57.8071 4.59598C57.4831 4.11598 57.3211 3.59998 57.3211 3.04798C57.3211 2.49598 57.4051 2.03998 57.5731 1.67998C57.7531 1.30798 57.9211 1.03798 58.0771 0.869975C58.2331 0.689976 58.4131 0.599976 58.6171 0.599976C58.9531 0.599976 59.2591 0.851976 59.5351 1.35598C59.8111 1.84798 59.9491 2.26198 59.9491 2.59798C59.9491 3.22198 59.7271 3.71398 59.2831 4.07397C58.8511 4.42198 58.3591 4.59598 57.8071 4.59598Z" fill="#51A8B9"/>
<path d="M62.5414 6.01798C62.9734 6.01798 63.3814 6.43198 63.7654 7.25998C64.3294 6.67198 65.0254 6.37798 65.8534 6.37798C66.6934 6.37798 67.3234 6.56398 67.7434 6.93598C68.1634 7.29598 68.3734 7.81198 68.3734 8.48398C68.3734 9.14398 68.2834 9.81598 68.1034 10.5C67.9354 11.184 67.8094 11.676 67.7254 11.976C67.6534 12.264 67.6174 12.504 67.6174 12.696C67.6174 12.888 67.6834 12.984 67.8154 12.984C67.9954 12.984 68.2174 12.87 68.4814 12.642C68.7454 12.414 69.0094 12.168 69.2734 11.904C69.5374 11.628 69.7774 11.376 69.9934 11.148C70.2214 10.92 70.3774 10.806 70.4614 10.806C70.6294 10.806 70.7134 11.01 70.7134 11.418C70.7134 12.258 70.2994 13.068 69.4714 13.848C68.0794 14.664 67.1914 15.072 66.8074 15.072C66.7714 15.072 66.7474 15.066 66.7354 15.054C65.7754 15.054 65.2954 14.286 65.2954 12.75C65.2954 12.09 65.3554 11.484 65.4754 10.932C65.6074 10.38 65.7034 9.97798 65.7634 9.72598C65.8234 9.47398 65.8534 9.21598 65.8534 8.95197C65.8534 8.51998 65.6014 8.30398 65.0974 8.30398C64.6054 8.30398 64.1314 8.67598 63.6754 9.41998C63.2314 10.152 62.9314 10.914 62.7754 11.706V11.832C62.7754 12.24 62.8354 12.66 62.9554 13.092C63.0874 13.524 63.1534 13.824 63.1534 13.992C63.1534 14.4 62.6434 14.802 61.6234 15.198C61.4674 15.258 61.3294 15.288 61.2094 15.288C60.9094 15.288 60.6994 15.132 60.5794 14.82C60.4714 14.508 60.4174 14.022 60.4174 13.362C60.4174 11.658 60.4834 10.428 60.6154 9.67198C60.7954 8.54398 61.2034 7.49398 61.8394 6.52198C62.0554 6.18598 62.2894 6.01798 62.5414 6.01798Z" fill="#51A8B9"/>
<path d="M80.8674 10.752C81.0834 10.752 81.1914 11.028 81.1914 11.58C81.1914 11.88 81.0654 12.246 80.8134 12.678C80.5614 13.098 80.2314 13.488 79.8234 13.848C79.4274 14.196 78.9834 14.484 78.4914 14.712C77.9994 14.94 77.5194 15.054 77.0514 15.054C76.3914 15.054 75.9594 14.514 75.7554 13.434C75.0354 14.574 73.9674 15.144 72.5514 15.144C71.6874 15.144 70.9974 14.88 70.4814 14.352C69.9654 13.824 69.7134 13.182 69.7254 12.426C69.7254 10.386 70.4034 8.77798 71.7594 7.60198C72.6954 6.79798 73.6674 6.39598 74.6754 6.39598C75.1314 6.39598 75.4914 6.43198 75.7554 6.50398L76.1694 6.61198C76.6614 4.29598 77.2314 2.74798 77.8794 1.96798C78.0954 1.70397 78.3114 1.57197 78.5274 1.57197C78.8754 1.57197 79.1994 1.81198 79.4994 2.29198C79.7634 2.68798 79.8954 3.02998 79.8954 3.31798C79.8954 3.60598 79.8534 3.88798 79.7694 4.16397C79.6854 4.43997 79.5774 4.69797 79.4454 4.93798C79.3254 5.16598 79.1874 5.39398 79.0314 5.62198C78.8754 5.83798 78.7194 6.05998 78.5634 6.28798C78.2154 7.58398 77.9574 9.03598 77.7894 10.644C77.7414 11.1 77.7174 11.466 77.7174 11.742C77.7174 12.57 77.8554 12.984 78.1314 12.984C78.4434 12.984 79.1994 12.36 80.3994 11.112C80.6154 10.872 80.7714 10.752 80.8674 10.752ZM72.3714 11.832C72.3714 12.756 72.7134 13.218 73.3974 13.218C73.8054 13.218 74.2134 13.062 74.6214 12.75C75.0414 12.438 75.3654 11.916 75.5934 11.184C75.6174 10.104 75.7434 8.91598 75.9714 7.61998C75.0114 7.81198 74.1714 8.27998 73.4514 9.02398C72.7314 9.76798 72.3714 10.704 72.3714 11.832Z" fill="#51A8B9"/>
</svg>
