<svg width="658" height="670" viewBox="0 0 658 670" fill="none" xmlns="http://www.w3.org/2000/svg">
<ellipse cx="329" cy="573.5" rx="329" ry="96.5" fill="url(#paint0_radial_7600_338)"/>
<path d="M233.643 212.462L241.616 201.334C319.25 299.531 324.286 557.191 324.286 557.191H289.875C289.875 557.191 299.107 349.295 233.643 212.462Z" fill="#BEA372"/>
<path d="M147.252 124.176C208.444 138.838 239.785 183.444 247.541 204.51C247.541 204.51 217.26 191.035 211.683 189.981C213.805 185.213 220.573 176.799 220.573 176.799C220.573 176.799 205.504 180.09 200.859 183.736C200.859 183.736 179.41 174.191 170.048 171.453C173.962 166.054 194.536 153.787 194.536 153.787C194.536 153.787 162.937 156.863 150.262 168.361C150.262 168.361 131.007 164.077 124.9 164.215C127.552 158.255 140.026 143.811 140.026 143.811C140.026 143.811 116.197 153.201 108.369 164C108.369 164 89.5151 165.607 84.1386 167.499C86.0599 159.785 98.5337 145.341 98.5337 145.341C98.5337 145.341 79.5508 154.032 69.3998 166.653C69.3998 166.653 44.1086 172.536 32.8251 177.512C45.2941 154.021 86.0606 109.513 147.252 124.176Z" fill="#66BBBE" stroke="#64B9C8"/>
<path d="M113.174 189.407C173.361 171.031 222.983 193.704 240.344 207.988C240.344 207.988 207.41 211.702 202.068 213.622C201.481 208.42 203.052 197.708 203.052 197.708C203.052 197.708 191.728 208.203 189.57 213.714C189.57 213.714 166.242 216.345 156.783 218.729C157.422 212.072 168.945 191.019 168.945 191.019C168.945 191.019 143.259 209.719 138.158 226.096C138.158 226.096 119.386 232.164 114.19 235.384C113.457 228.882 116.893 210.058 116.893 210.058C116.893 210.058 101.106 230.275 99.8283 243.588C99.8283 243.588 84.3876 254.548 80.7108 258.913C78.4586 251.266 81.8946 232.442 81.8946 232.442C81.8946 232.442 69.9317 249.593 67.5747 265.662C67.5747 265.662 48.7504 283.588 41.5434 293.618C40.3912 266.972 52.9871 207.784 113.174 189.407Z" fill="#1589A3" stroke="#64B9C8"/>
<path d="M128.451 256.763C172.437 210.594 227.563 206.004 250.017 210.019C250.017 210.019 222.785 229.671 219.025 234.024C215.913 229.712 211.959 219.451 211.959 219.451C211.959 219.451 207.193 234.366 208.035 240.315C208.035 240.315 188.746 254.235 181.582 261.045C178.827 254.836 178.504 230.478 178.504 230.478C178.504 230.478 165.146 259.79 168.808 276.82C168.808 276.82 155.257 291.518 152.274 296.949C148.385 291.559 142.032 273.192 142.032 273.192C142.032 273.192 138.173 298.928 143.683 311.346C143.683 311.346 135.512 328.717 134.442 334.408C128.64 328.758 122.288 310.391 122.288 310.391C122.288 310.391 120.276 331.515 126.207 346.908C126.207 346.908 118.523 372.126 117.16 384.584C102.856 361.574 84.4646 302.932 128.451 256.763Z" fill="#1589A3" stroke="#64B9C8"/>
<path d="M302.012 104.383C253.446 139.232 243.533 190.774 245.124 212.636C245.124 212.636 266.648 189.743 271.189 186.824C267.376 183.239 257.958 177.978 257.958 177.978C257.958 177.978 272.701 175.666 278.307 177.342C278.307 177.342 293.553 161.126 300.784 155.345C295.122 151.818 271.857 147.916 271.857 147.916C271.857 147.916 301.231 139.591 317.152 145.575C317.152 145.575 332.568 134.909 338.061 132.885C333.295 128.405 316.365 119.675 316.365 119.675C316.365 119.675 341.367 119.82 352.692 126.873C352.692 126.873 370.126 121.699 375.676 121.525C370.854 115.195 353.923 106.465 353.923 106.465C353.923 106.465 374.328 107.679 388.456 115.571C388.456 115.571 413.346 112.016 425.399 112.565C404.823 95.6162 350.577 69.5348 302.012 104.383Z" fill="#4594A1" stroke="#2A8393"/>
<path d="M229.576 85.8135C211.469 142.78 234.33 190.027 248.673 206.603C248.673 206.603 252.245 175.384 254.14 170.33C248.941 169.735 238.246 171.147 238.246 171.147C238.246 171.147 248.684 160.481 254.18 158.474C254.18 158.474 256.711 136.36 259.052 127.404C252.405 127.961 231.421 138.738 231.421 138.738C231.421 138.738 249.994 114.507 266.335 109.787C266.335 109.787 272.318 92.0224 275.513 87.1167C269.014 86.373 250.223 89.494 250.223 89.494C250.223 89.494 270.354 74.6658 283.649 73.5515C283.649 73.5515 294.534 58.9831 298.879 55.5269C291.23 53.3337 272.438 56.4547 272.438 56.4547C272.438 56.4547 289.523 45.2315 305.567 43.1138C305.567 43.1138 323.396 25.3866 333.387 18.623C306.761 17.3332 247.682 28.8467 229.576 85.8135Z" fill="#2491A8" stroke="#2A8393"/>
<ellipse cx="257.367" cy="201.097" rx="18.8496" ry="23.0889" transform="rotate(-57.5291 257.367 201.097)" fill="#D09E69"/>
<ellipse cx="225.122" cy="214.617" rx="18.8496" ry="23.0889" transform="rotate(5.16154 225.122 214.617)" fill="#D09E69"/>
<ellipse cx="243.674" cy="214.266" rx="18.8496" ry="23.0889" transform="rotate(-24.8903 243.674 214.266)" fill="#E3AB78"/>
<path d="M431.423 299.877L426.478 291.825C368.224 355.639 352.157 532.797 352.157 532.797L375.849 534.479C375.849 534.479 379.659 390.887 431.423 299.877Z" fill="#BEA372"/>
<path d="M487.4 241.63C451.828 248.414 432.016 275.751 426.682 288.967C426.682 288.967 444.552 281.609 447.782 281.173C446.775 278.014 443.272 272.308 443.272 272.308C443.272 272.308 451.735 275.078 454.231 277.624C454.231 277.624 466.888 272.412 472.352 271.056C470.349 267.414 459.128 258.632 459.128 258.632C459.128 258.632 477.039 261.978 483.783 269.923C483.783 269.923 494.962 268.001 498.443 268.354C497.185 264.405 490.683 254.574 490.683 254.574C490.683 254.574 503.886 261.646 507.892 268.931C507.892 268.931 518.589 270.781 521.578 272.231C520.812 267.185 514.31 257.354 514.31 257.354C514.31 257.354 524.776 263.766 530.03 272.324C530.03 272.324 544.219 277.204 550.448 280.893C544.337 265.242 522.971 234.846 487.4 241.63Z" fill="#66BBBE" stroke="#64B9C8"/>
<path d="M504.057 285.067C470.478 270.641 441.169 283.079 430.642 291.516C430.642 291.516 449.289 295.331 452.257 296.797C452.815 293.476 452.378 286.517 452.378 286.517C452.378 286.517 458.393 293.759 459.389 297.397C459.389 297.397 472.597 300.099 477.896 302.042C477.817 297.732 472.141 283.691 472.141 283.691C472.141 283.691 486.005 296.831 488.214 307.588C488.214 307.588 498.673 312.303 501.501 314.599C502.199 310.449 501.046 298.191 501.046 298.191C501.046 298.191 509.192 311.879 509.35 320.499C509.35 320.499 517.696 328.217 519.608 331.184C521.222 326.362 520.069 314.104 520.069 314.104C520.069 314.104 526.163 325.656 526.819 336.094C526.819 336.094 536.797 348.44 540.482 355.205C542.285 338.113 537.635 299.494 504.057 285.067Z" fill="#1589A3" stroke="#64B9C8"/>
<path d="M492.44 327.735C469.306 296.131 438.026 290.793 425.032 292.404C425.032 292.404 439.737 306.224 441.697 309.187C443.659 306.548 446.358 300.118 446.358 300.118C446.358 300.118 448.439 309.919 447.702 313.71C447.702 313.71 458.119 323.499 461.917 328.19C463.757 324.315 464.988 308.66 464.988 308.66C464.988 308.66 471.356 328.094 468.533 338.89C468.533 338.89 475.64 348.932 477.11 352.554C479.562 349.255 483.979 337.715 483.979 337.715C483.979 337.715 485.077 354.438 481.397 362.187C481.397 362.187 485.316 373.716 485.683 377.423C489.239 374.04 493.655 362.5 493.655 362.5C493.655 362.5 493.896 376.175 489.848 385.82C489.848 385.82 493.153 402.375 493.395 410.449C502.552 396.265 515.573 359.338 492.44 327.735Z" fill="#1589A3" stroke="#64B9C8"/>
<path d="M399.88 222.2C426.115 246.719 429.561 280.304 427.713 294.299C427.713 294.299 416.406 278.641 413.939 276.566C416.269 274.425 421.874 271.449 421.874 271.449C421.874 271.449 413.554 269.323 410.281 270.159C410.281 270.159 402.272 259.067 398.391 255.036C401.776 253.012 415.229 251.509 415.229 251.509C415.229 251.509 398.813 244.882 389.465 248.042C389.465 248.042 381.121 240.514 378.071 238.974C380.984 236.298 391.027 231.415 391.027 231.415C391.027 231.415 376.744 230.426 369.975 234.473C369.975 234.473 360.242 230.39 357.08 230.039C360.106 226.175 370.148 221.292 370.148 221.292C370.148 221.292 358.444 221.19 350.038 225.655C350.038 225.655 335.978 222.291 329.072 222.122C341.549 212.11 373.645 197.68 399.88 222.2Z" fill="#4594A1" stroke="#2A8393"/>
<path d="M442.04 213.389C449.931 250.819 434.848 280.222 425.946 290.265C425.946 290.265 425.247 270.027 424.382 266.694C427.376 266.536 433.423 267.907 433.423 267.907C433.423 267.907 427.921 260.594 424.869 259.065C424.869 259.065 424.374 244.731 423.421 238.868C427.193 239.514 438.713 247.355 438.713 247.355C438.713 247.355 429.148 230.963 420.02 227.22C420.02 227.22 417.366 215.533 415.753 212.239C419.496 212.042 430.092 214.863 430.092 214.863C430.092 214.863 419.234 204.453 411.69 203.161C411.69 203.161 406.1 193.318 403.767 190.907C408.23 189.827 418.826 192.648 418.826 192.648C418.826 192.648 409.552 184.689 400.482 182.632C400.482 182.632 391.063 170.457 385.648 165.674C400.908 165.996 434.148 175.96 442.04 213.389Z" fill="#2491A8" stroke="#2A8393"/>
<ellipse cx="13.011" cy="15.9372" rx="13.011" ry="15.9372" transform="matrix(-0.475754 -0.879579 -0.879579 0.475754 435.853 294.754)" fill="#D09E69"/>
<ellipse cx="13.011" cy="15.9372" rx="13.011" ry="15.9372" transform="matrix(-0.999816 0.0191806 0.0191806 0.999816 449.888 285.594)" fill="#D09E69"/>
<ellipse cx="13.011" cy="15.9372" rx="13.011" ry="15.9372" transform="matrix(-0.875019 -0.484089 -0.484089 0.875019 443.529 292.981)" fill="#E3AB78"/>
<path d="M233.896 520.822C247.192 510.348 241.617 471.749 265.658 466.411C284.618 462.201 289.514 491.732 296.929 492.224C330.415 466.411 347.38 486.303 350.112 510.66C361.671 508.894 373.505 513.359 383.106 520.822C403.57 536.729 401.08 564.922 377.935 581.779C354.79 598.637 266.643 597.258 243.745 593.895C215.936 589.812 176.313 572.331 182.682 545.43C190.477 512.505 220.6 531.296 233.896 520.822Z" fill="#51A8B9"/>
<path d="M329.404 509.326C321.758 512.853 303.661 512.902 292.849 523.197C284.867 530.797 288.071 544.637 282.061 544.637C276.052 544.637 258.402 557.377 260.117 570.451C263.939 599.603 358.791 595.842 384.356 595.842C409.921 595.842 494.021 588.554 472.518 551.173C459.378 531.19 450.538 545.061 443.848 534.952C437.875 520.846 445.759 511.207 434.53 498.982C423.3 486.757 407.77 494.28 393.913 491.694C378.622 485.346 374.799 473.827 355.207 477.823C335.616 481.82 337.049 505.8 329.404 509.326Z" fill="#75CADB"/>
<path d="M256.23 547.212C263.279 527.095 283.857 550.544 292.138 536.857C300.73 522.657 313.96 513.026 323.2 514.079C332.14 515.097 328.047 527.687 332.673 536.857C336.928 545.292 346.058 520.884 354.703 516.445C362.193 512.599 370.124 516.741 374.089 536.858C378.054 556.975 368.493 573.116 356.685 588.629C337.378 613.994 305.448 607.677 288.173 601.35C274.131 596.207 249.18 567.329 256.23 547.212Z" fill="#37839A"/>
<defs>
<radialGradient id="paint0_radial_7600_338" cx="0" cy="0" r="1" gradientUnits="userSpaceOnUse" gradientTransform="translate(340.75 519.506) rotate(135.784) scale(388.777 1211.56)">
<stop stop-color="#F9EE8A"/>
<stop offset="1" stop-color="#FDE2C5"/>
</radialGradient>
</defs>
</svg>
