<svg width="1280" height="204" viewBox="0 0 1280 204" fill="none" xmlns="http://www.w3.org/2000/svg">
<path d="M229.416 32.3205C178.047 -3.30165 85.5 -16.5001 0 32.3206V204H1280V32.3206C1227 58 1198.95 98.1226 1136.11 98.1226C1073.27 98.1226 1028 40.2365 972.526 40.2365C920 40.2365 876.887 96.4684 832.5 93.4999C788.113 90.5314 752.087 43.2051 698.224 40.2365C644.361 37.268 581.907 97.2637 545.5 74.9999C509.093 52.736 494.243 25.3942 448.36 25.3942C402.476 25.3942 373.55 50.1316 341.631 66.4584C309.712 82.7853 280.786 67.9427 229.416 32.3205Z" fill="#FDE2C5"/>
</svg>
