<svg width="1280" height="229" viewBox="0 0 1280 229" fill="none" xmlns="http://www.w3.org/2000/svg">
<path d="M217.192 31.3482C165.823 -7.85541 85.5 -13.669 0 40.0602V229H1280V40.0602C1227 68.3214 1186.73 103.766 1123.89 103.766C1061.05 103.766 1015.78 40.0601 960.302 40.0601C907.776 40.0601 864.663 101.946 820.276 98.6785C775.889 95.4116 739.863 43.3271 686 40.0601C632.137 36.7931 569.683 102.821 533.276 78.3186C496.868 53.8163 482.019 23.7255 436.135 23.7255C390.252 23.7255 361.326 50.95 329.407 68.9184C297.488 86.8867 268.562 70.5518 217.192 31.3482Z" fill="#FEA595"/>
</svg>
