<svg width="16" height="16" viewBox="0 0 16 16" fill="none" xmlns="http://www.w3.org/2000/svg">
  <path opacity="0.9" fill-rule="evenodd" clip-rule="evenodd"
    d="M4.287 3H8.248C9.369 3 10.217 3.295 10.791 3.886C11.236 4.343 11.458 4.91 11.458 5.586V5.614C11.458 6.176 11.333 6.626 11.083 6.964C10.833 7.302 10.532 7.571 10.18 7.771C10.458 7.886 10.71 8.014 10.937 8.157C11.164 8.3 11.357 8.469 11.514 8.664C11.671 8.86 11.792 9.086 11.874 9.343C11.958 9.6 12 9.895 12 10.229V10.257C12 10.714 11.914 11.114 11.743 11.457C11.5723 11.7991 11.3194 12.0936 11.007 12.314C10.687 12.543 10.303 12.714 9.853 12.829C9.404 12.943 8.906 13 8.36 13H4.287C4.21088 13 4.13788 12.9698 4.08406 12.9159C4.03024 12.8621 4 12.7891 4 12.713V3.287C4 3.13 4.129 3 4.287 3ZM7.79 7.043C8.262 7.043 8.638 6.96 8.915 6.793C9.193 6.626 9.332 6.357 9.332 5.986V5.957C9.332 5.624 9.212 5.369 8.971 5.193C8.731 5.017 8.383 4.929 7.929 4.929H5.817V7.043H7.79ZM8.36 11.071C8.832 11.071 9.203 10.983 9.471 10.807C9.74 10.631 9.874 10.357 9.874 9.986V9.957C9.87957 9.80445 9.84842 9.65279 9.78316 9.51479C9.7179 9.37679 9.62045 9.25648 9.499 9.164C9.249 8.969 8.846 8.871 8.29 8.871H5.817V11.071H8.36Z"
    fill="currentColor" />
</svg>