<svg width="20" height="20" viewBox="0 0 20 20" fill="none" xmlns="http://www.w3.org/2000/svg">
<path d="M13.4542 11.8671C11.8942 11.8671 10.6248 13.1307 10.6248 14.6835C10.6248 16.2958 12.2786 17.5 13.7579 17.5H15.9385C16.4522 17.5 16.9335 17.2578 17.2247 16.8528C17.4997 16.4704 17.5728 15.9966 17.4253 15.5535C16.6322 13.1758 15.2222 11.8671 13.4542 11.8671ZM16.211 16.1212C16.1535 16.2007 16.0522 16.2482 15.9385 16.2482H13.7579C12.9048 16.2482 11.8748 15.5504 11.8748 14.6835C11.8748 13.8167 12.5829 13.1188 13.4542 13.1188C14.976 13.1188 15.8091 14.6585 16.2397 15.9503C16.2472 15.9722 16.2697 16.0398 16.211 16.1212ZM17.4997 4.74637C17.4997 4.13989 17.2647 3.57096 16.8372 3.14286C15.9829 2.28665 14.4866 2.28665 13.6354 3.14286L3.44998 13.3416C2.83749 13.9556 2.5 14.7711 2.5 15.6386V16.8735C2.5 17.219 2.77999 17.4994 3.12499 17.4994H4.35871C5.22557 17.4994 6.03993 17.1614 6.65242 16.548L16.8378 6.34926C17.2653 5.92116 17.4997 5.35285 17.4997 4.74637ZM5.76931 15.6637C5.39244 16.0411 4.89183 16.2482 4.35934 16.2482H3.7506V15.6392C3.7506 15.106 3.9581 14.604 4.33434 14.2273L12.0504 6.5001L13.4848 7.9365L5.76931 15.6637ZM15.9535 5.46426L14.3679 7.05213L12.9335 5.61573L14.5198 4.02723C14.901 3.64482 15.571 3.64544 15.9529 4.02723C16.1435 4.21938 16.2497 4.47411 16.2497 4.74637C16.2497 5.01863 16.1447 5.27337 15.9535 5.46426ZM3.16249 6.34926C2.73562 5.92116 2.50062 5.3516 2.50062 4.74637C2.50062 4.14114 2.73562 3.57034 3.16249 3.14286C4.01809 2.2854 5.51181 2.28603 6.36555 3.14286L8.76487 5.54563C9.00924 5.79035 9.00924 6.18591 8.76487 6.43063C8.5205 6.67535 8.12551 6.67535 7.88114 6.43063L5.48119 4.02723C5.09932 3.64419 4.42934 3.64482 4.04747 4.02723C3.8556 4.21938 3.7506 4.47411 3.7506 4.74637C3.7506 5.01863 3.8556 5.27337 4.04684 5.46489L6.44617 7.86765C6.69054 8.11175 6.69054 8.50793 6.44617 8.75265C6.3243 8.8747 6.1643 8.93604 6.0043 8.93604C5.84431 8.93604 5.68431 8.8747 5.56244 8.75265L3.16249 6.34926Z" fill="#222222"/>
</svg>
