<svg width="16" height="16" viewBox="0 0 16 16" fill="none" xmlns="http://www.w3.org/2000/svg">
  <path opacity="0.9" fill-rule="evenodd" clip-rule="evenodd"
    d="M9.27811 4.00403H8.16011C8.14295 4.00403 8.12597 4.00063 8.11013 3.99404C8.09429 3.98744 8.07992 3.97778 8.06783 3.9656C8.05575 3.95342 8.04619 3.93897 8.03972 3.92308C8.03324 3.9072 8.02998 3.89018 8.03011 3.87303V3.13403C8.03011 3.11696 8.03347 3.10005 8.04001 3.08428C8.04654 3.06851 8.05612 3.05418 8.06819 3.0421C8.08026 3.03003 8.09459 3.02046 8.11036 3.01392C8.12613 3.00739 8.14304 3.00403 8.16011 3.00403H12.0421C12.0592 3.00403 12.0761 3.00739 12.0919 3.01392C12.1076 3.02046 12.122 3.03003 12.134 3.0421C12.1461 3.05418 12.1557 3.06851 12.1622 3.08428C12.1687 3.10005 12.1721 3.11696 12.1721 3.13403V3.87303C12.1721 3.8901 12.1687 3.907 12.1622 3.92278C12.1557 3.93855 12.1461 3.95288 12.134 3.96495C12.122 3.97702 12.1076 3.9866 12.0919 3.99313C12.0761 3.99967 12.0592 4.00303 12.0421 4.00303H10.7581L7.79811 12H8.85111C8.86818 12 8.88509 12.0034 8.90086 12.0099C8.91663 12.0165 8.93096 12.026 8.94303 12.0381C8.95511 12.0502 8.96468 12.0645 8.97122 12.0803C8.97775 12.0961 8.98111 12.113 8.98111 12.13V12.87C8.98111 12.9045 8.96741 12.9376 8.94303 12.962C8.91865 12.9863 8.88559 13 8.85111 13H4.96911C4.93463 13 4.90157 12.9863 4.87719 12.962C4.85281 12.9376 4.83911 12.9045 4.83911 12.87V12.13C4.83911 12.113 4.84247 12.0961 4.84901 12.0803C4.85554 12.0645 4.86512 12.0502 4.87719 12.0381C4.88926 12.026 4.90359 12.0165 4.91936 12.0099C4.93513 12.0034 4.95204 12 4.96911 12H6.31911L9.27911 4.00403H9.27811Z"
    fill="currentColor" />
</svg>