<svg width="16" height="16" viewBox="0 0 16 16" fill="none" xmlns="http://www.w3.org/2000/svg">
  <path fill-rule="evenodd" clip-rule="evenodd"
    d="M5.72808 7.96994H10.6281C10.7531 8.05194 10.8681 8.13794 10.9721 8.22994C11.2321 8.45594 11.4281 8.71794 11.5621 9.01394C11.6971 9.30994 11.7641 9.66194 11.7641 10.0689V10.0969C11.7641 10.5509 11.6781 10.9579 11.5071 11.3189C11.3404 11.6743 11.0961 11.9877 10.7921 12.2359C10.4861 12.4859 10.1201 12.6759 9.69408 12.8059C9.26908 12.9359 8.80108 12.9999 8.29208 12.9999C7.55732 13.0027 6.82806 12.8733 6.13908 12.6179C5.43548 12.352 4.78946 11.9534 4.23608 11.4439L5.26408 10.2219C5.73608 10.6299 6.21308 10.9419 6.69408 11.1599C7.17608 11.3769 7.72208 11.4859 8.33408 11.4859C8.86108 11.4859 9.28008 11.3749 9.59008 11.1529C9.90008 10.9309 10.0561 10.6339 10.0561 10.2629V10.2359C10.0561 10.0599 10.0261 9.90594 9.96608 9.77094C9.88918 9.61718 9.7742 9.48568 9.63208 9.38894C9.42677 9.24669 9.20216 9.13455 8.96508 9.05594C8.60359 8.93176 8.23492 8.82958 7.86108 8.74994C7.34308 8.61994 6.88108 8.48094 6.47908 8.33294C6.21676 8.23891 5.96505 8.11758 5.72808 7.97094V7.96994ZM4.68208 6.48394C4.64263 6.27427 4.62354 6.06128 4.62508 5.84794V5.81994C4.62088 5.43257 4.70286 5.04912 4.86509 4.69734C5.02732 4.34555 5.26574 4.03424 5.56308 3.78594C5.8734 3.52997 6.22884 3.33427 6.61108 3.20894C7.04086 3.06628 7.49127 2.99566 7.94408 2.99994C8.65708 2.99994 9.29908 3.10394 9.86808 3.31194C10.4381 3.52094 10.9721 3.82394 11.4721 4.22194L10.5561 5.51394C10.1495 5.21113 9.7059 4.96145 9.23608 4.77094C8.8163 4.60257 8.36838 4.51536 7.91608 4.51394C7.41608 4.51394 7.02808 4.62494 6.75008 4.84694C6.47208 5.06894 6.33308 5.34294 6.33308 5.66694V5.69394C6.33308 5.87994 6.36608 6.04394 6.43108 6.18794C6.48512 6.30199 6.56365 6.40272 6.66108 6.48294H4.68208V6.48394Z"
    fill="currentColor" />
  <path d="M15.5 8H0.5" stroke="currentColor" />
</svg>